<svg width="500" height="500" viewBox="0 0 500 500" fill="none" xmlns="http://www.w3.org/2000/svg">
<line x1="466.5" y1="399.362" x2="466.5" y2="166.638" stroke="black"/>
<line x1="466.5" y1="399.362" x2="466.5" y2="166.638" stroke="black"/>
<path d="M466.5 398.576C466.5 401.723 465.059 404.84 462.224 407.902C459.387 410.967 455.178 413.947 449.716 416.801C438.791 422.51 422.951 427.665 403.334 432.001C364.11 440.67 309.898 446.036 250 446.036C190.102 446.036 135.89 440.67 96.6657 432.001C77.0495 427.665 61.2089 422.51 50.2845 416.801C44.8218 413.947 40.6129 410.967 37.7756 407.902C34.9406 404.84 33.5 401.723 33.5 398.576C33.5 395.429 34.9406 392.312 37.7756 389.25C40.6129 386.186 44.8218 383.205 50.2845 380.351C61.2089 374.643 77.0495 369.487 96.6657 365.151C135.89 356.482 190.102 351.116 250 351.116C309.898 351.116 364.11 356.482 403.334 365.151C422.951 369.487 438.791 374.643 449.716 380.351C455.178 383.205 459.387 386.186 462.224 389.25C465.059 392.312 466.5 395.429 466.5 398.576Z" stroke="black"/>
<path d="M466.5 167.424C466.5 170.571 465.059 173.688 462.224 176.75C459.387 179.814 455.178 182.795 449.716 185.649C438.791 191.357 422.951 196.513 403.334 200.849C364.11 209.518 309.898 214.884 250 214.884C190.102 214.884 135.89 209.518 96.6657 200.849C77.0495 196.513 61.2089 191.357 50.2845 185.649C44.8218 182.795 40.6129 179.814 37.7756 176.75C34.9406 173.688 33.5 170.571 33.5 167.424C33.5 164.277 34.9406 161.16 37.7756 158.098C40.6129 155.033 44.8218 152.053 50.2845 149.199C61.2089 143.49 77.0495 138.335 96.6657 133.999C135.89 125.33 190.102 119.964 250 119.964C309.898 119.964 364.11 125.33 403.334 133.999C422.951 138.335 438.791 143.49 449.716 149.199C455.178 152.053 459.387 155.033 462.224 158.098C465.059 161.16 466.5 164.277 466.5 167.424Z" stroke="black"/>
<line x1="32.5" y1="399.362" x2="32.5" y2="166.638" stroke="black"/>
<path d="M466.5 398.576C466.5 401.723 465.059 404.84 462.224 407.902C459.387 410.967 455.178 413.947 449.716 416.801C438.791 422.51 422.951 427.665 403.334 432.001C364.11 440.67 309.898 446.036 250 446.036C190.102 446.036 135.89 440.67 96.6657 432.001C77.0495 427.665 61.2089 422.51 50.2845 416.801C44.8218 413.947 40.6129 410.967 37.7756 407.902C34.9406 404.84 33.5 401.723 33.5 398.576C33.5 395.429 34.9406 392.312 37.7756 389.25C40.6129 386.186 44.8218 383.205 50.2845 380.351C61.2089 374.643 77.0495 369.487 96.6657 365.151C135.89 356.482 190.102 351.116 250 351.116C309.898 351.116 364.11 356.482 403.334 365.151C422.951 369.487 438.791 374.643 449.716 380.351C455.178 383.205 459.387 386.186 462.224 389.25C465.059 392.312 466.5 395.429 466.5 398.576Z" stroke="black"/>
<path d="M466.5 167.424C466.5 170.571 465.059 173.688 462.224 176.75C459.387 179.814 455.178 182.795 449.716 185.649C438.791 191.357 422.951 196.513 403.334 200.849C364.11 209.518 309.898 214.884 250 214.884C190.102 214.884 135.89 209.518 96.6657 200.849C77.0495 196.513 61.2089 191.357 50.2845 185.649C44.8218 182.795 40.6129 179.814 37.7756 176.75C34.9406 173.688 33.5 170.571 33.5 167.424C33.5 164.277 34.9406 161.16 37.7756 158.098C40.6129 155.033 44.8218 152.053 50.2845 149.199C61.2089 143.49 77.0495 138.335 96.6657 133.999C135.89 125.33 190.102 119.964 250 119.964C309.898 119.964 364.11 125.33 403.334 133.999C422.951 138.335 438.791 143.49 449.716 149.199C455.178 152.053 459.387 155.033 462.224 158.098C465.059 161.16 466.5 164.277 466.5 167.424Z" stroke="black"/>
<line x1="32.5" y1="399.362" x2="32.5" y2="166.638" stroke="black"/>
<path d="M89.7346 314.449H96.5277V297.53H99.9242V300.926H103.258V304.26H106.654V307.656H110.051V311.053H113.447V314.449H120.24V307.656H116.844V304.26H113.447V300.863H110.051V297.53H106.654V294.133H103.321V290.737H106.654V287.34H110.051V284.006H113.447V280.61H116.844V277.213H120.24V270.42H113.447V273.817H110.051V277.213H106.654V280.61H103.258V283.943H99.9242V287.34H96.5277V270.42H89.7346V314.449Z" fill="black"/>
<path d="M123.641 314.449H150.75V307.656H130.434V270.42H123.641V314.449Z" fill="black"/>
<path d="M167.755 297.53V290.737H171.151V280.61H177.882V290.737H181.278V297.53H167.755ZM154.169 314.449H160.962V307.656H164.358V304.323H184.675V307.656H188.071V314.449H194.864V304.26H191.468V297.53H188.071V290.737H184.675V280.61H181.278V273.817H177.944V270.42H171.151V273.817H167.755V280.61H164.358V290.737H160.962V297.53H157.565V304.26H154.169V314.449Z" fill="black"/>
<path d="M205.065 277.213H221.921V280.61H225.318V287.34H221.921V290.737H205.065V277.213ZM198.271 314.449H205.065V297.53H218.525V300.926H221.921V304.26H225.318V314.449H232.111V300.926H228.714V297.53H225.318V294.133H228.714V290.737H232.111V277.213H228.714V273.817H225.318V270.42H198.271V314.449Z" fill="black"/>
<path d="M235.495 314.449H242.288V297.53H245.684V300.926H249.018V304.26H252.414V307.656H255.811V311.053H259.207V314.449H266V307.656H262.604V304.26H259.207V300.863H255.811V297.53H252.414V294.133H249.081V290.737H252.414V287.34H255.811V284.006H259.207V280.61H262.604V277.213H266V270.42H259.207V273.817H255.811V277.213H252.414V280.61H249.018V283.943H245.684V287.34H242.288V270.42H235.495V314.449Z" fill="black"/>
<path d="M276.131 314.449H293.114V311.053H296.447V307.656H299.844V270.42H293.051V304.26H289.717V307.656H279.59V304.26H276.194V270.42H269.401V307.656H272.797V311.053H276.131V314.449Z" fill="black"/>
<path d="M303.246 314.449H310.039V297.53H313.435V300.926H316.769V304.26H320.165V307.656H323.562V311.053H326.958V314.449H333.751V307.656H330.355V304.26H326.958V300.863H323.562V297.53H320.165V294.133H316.832V290.737H320.165V287.34H323.562V284.006H326.958V280.61H330.355V277.213H333.751V270.42H326.958V273.817H323.562V277.213H320.165V280.61H316.769V283.943H313.435V287.34H310.039V270.42H303.246V314.449Z" fill="black"/>
<path d="M337.152 314.449H364.261V307.656H343.945V270.42H337.152V314.449Z" fill="black"/>
<path d="M381.266 297.53V290.737H384.662V280.61H391.393V290.737H394.789V297.53H381.266ZM367.68 314.449H374.473V307.656H377.869V304.323H398.186V307.656H401.582V314.449H408.375V304.26H404.979V297.53H401.582V290.737H398.186V280.61H394.789V273.817H391.456V270.42H384.662V273.817H381.266V280.61H377.869V290.737H374.473V297.53H371.076V304.26H367.68V314.449Z" fill="black"/>
<circle cx="249" cy="119" r="64.5" fill="#FFF500" stroke="black"/>
<path d="M225.016 145.2H241.912L240.76 144.144H234.424V116.496L243.544 125.616C249.016 121.488 251.512 118.32 252.76 116.88C257.176 111.696 261.4 109.008 264.568 109.008C271.288 109.008 273.784 120.816 265.624 146.256C263.32 153.552 255.448 157.104 249.016 158.832L249.304 159.408L267.448 155.856C277.24 124.272 273.304 106.896 264.952 106.896C262.264 106.896 259.096 108.72 255.736 112.464C252.856 115.536 248.056 120.048 243.448 120.048C239.128 120.048 235 116.976 236.632 112.176L267.064 78.96H273.016L274.072 78H258.424L257.272 78.96C261.784 79.536 260.824 82.416 259.48 84.624L234.424 112.848V86.256C234.424 86.256 234.328 79.056 241.144 79.056L239.992 78H223L224.152 78.96H230.488V138.576C230.104 140.88 228.664 144.144 223.864 144.144L225.016 145.2Z" fill="black"/>
</svg>
