<svg width="177" height="47" viewBox="0 0 177 47" fill="none" xmlns="http://www.w3.org/2000/svg">
<path d="M6.78176 0.0669507V16.2023C6.78176 18.3894 6.96261 20.1971 7.3243 21.6254C7.686 23.009 8.22854 24.1026 8.95193 24.906C9.72053 25.7094 10.67 26.2673 11.8003 26.5798C12.9758 26.8922 14.3321 27.0484 15.8693 27.0484C17.4517 27.0484 18.8533 26.8922 20.074 26.5798C21.2947 26.2673 22.312 25.7094 23.1258 24.906C23.9396 24.1026 24.55 23.0537 24.9569 21.7593C25.409 20.4202 25.6351 18.7464 25.6351 16.7379V0.0669507H32.0777V47H3.32306V40.6396H25.4316V29.5256H25.296C24.6178 30.5522 23.3971 31.4449 21.6338 32.2037C19.9158 32.9625 17.9717 33.3419 15.8015 33.3419C13.993 33.3419 12.1394 33.1633 10.2405 32.8063C8.38678 32.4492 6.69134 31.6904 5.15414 30.5299C3.61694 29.3694 2.37362 27.6956 1.42417 25.5085C0.474723 23.2768 0 20.331 0 16.6709V0.0669507H6.78176Z" fill="#4200FF"/>
<path d="M45.0632 9.90883C45.1536 10.7569 45.6736 11.4264 46.623 11.9174C47.5725 12.4084 48.748 12.8547 50.1495 13.2564C51.5963 13.6135 53.1335 14.0152 54.7611 14.4615C56.3888 14.8632 57.9034 15.4435 59.3049 16.2023C60.7065 16.9611 61.8594 17.9653 62.7636 19.2151C63.7131 20.4202 64.1878 22.0047 64.1878 23.9687C64.1878 25.1738 63.9391 26.3566 63.4418 27.5171C62.9897 28.6776 62.2437 29.7265 61.2038 30.6638C60.1639 31.5565 58.8076 32.293 57.1348 32.8732C55.5071 33.4535 53.5404 33.7436 51.2346 33.7436C49.3809 33.7436 47.6403 33.4758 46.0127 32.9402C44.4303 32.3599 43.0287 31.5788 41.808 30.5969C40.5873 29.5703 39.5926 28.3875 38.824 27.0484C38.1006 25.6648 37.6711 24.1695 37.5355 22.5627H44.5207C44.6563 23.2322 44.8598 23.9017 45.131 24.5712C45.4475 25.2407 45.877 25.8433 46.4196 26.3789C47.0073 26.9145 47.7307 27.3386 48.5897 27.651C49.4488 27.9634 50.4886 28.1197 51.7093 28.1197C53.2013 28.1197 54.3542 27.9634 55.168 27.651C56.0271 27.2939 56.66 26.8922 57.0669 26.4459C57.4738 25.9995 57.7225 25.5978 57.8129 25.2407C57.9034 24.839 57.9486 24.5935 57.9486 24.5043C58.039 23.0313 57.6321 21.9378 56.7279 21.2236C55.8236 20.5095 54.6481 19.9516 53.2013 19.5499C51.7998 19.1035 50.2626 18.7464 48.5897 18.4786C46.9169 18.1662 45.3571 17.6975 43.9103 17.0726C42.4635 16.4478 41.2428 15.5551 40.2482 14.3946C39.2987 13.2341 38.824 11.6273 38.824 9.57407C38.824 8.36895 39.0275 7.20845 39.4344 6.09259C39.8865 4.97673 40.5647 3.97246 41.4689 3.07977C42.4183 2.18708 43.6164 1.47293 45.0632 0.937322C46.51 0.40171 48.2506 0.133903 50.2852 0.133903C51.958 0.133903 53.563 0.334757 55.1002 0.736466C56.6374 1.13818 57.9938 1.76306 59.1693 2.61111C60.3448 3.41453 61.2716 4.46344 61.9498 5.75783C62.6732 7.0076 63.0349 8.48053 63.0349 10.1766H56.2531C56.1627 9.64102 56.0045 9.12773 55.7784 8.63675C55.5523 8.10114 55.2133 7.63248 54.7611 7.23077C54.3542 6.82906 53.7891 6.4943 53.0657 6.2265C52.3875 5.95869 51.5285 5.80247 50.4886 5.75783C49.3131 5.7132 48.3637 5.8471 47.6403 6.15954C46.9169 6.42735 46.3518 6.78442 45.9448 7.23077C45.5832 7.67711 45.3345 8.14577 45.1989 8.63675C45.0632 9.12773 45.018 9.55176 45.0632 9.90883Z" fill="#4200FF"/>
<path d="M75.7253 0.0669507V16.2023C75.7253 18.3894 75.9061 20.1971 76.2678 21.6254C76.6295 23.009 77.172 24.1026 77.8954 24.906C78.664 25.7094 79.6135 26.2673 80.7438 26.5798C81.9193 26.8922 83.2756 27.0484 84.8128 27.0484C86.3952 27.0484 87.7968 26.8922 89.0175 26.5798C90.2382 26.2673 91.2555 25.7094 92.0693 24.906C92.8831 24.1026 93.4935 23.0537 93.9004 21.7593C94.3525 20.4202 94.5786 18.7464 94.5786 16.7379V0.0669507H101.021V47H72.2666V40.6396H94.3751V29.5256H94.2395C93.5613 30.5522 92.3406 31.4449 90.5773 32.2037C88.8593 32.9625 86.9152 33.3419 84.745 33.3419C82.9365 33.3419 81.0829 33.1633 79.184 32.8063C77.3303 32.4492 75.6348 31.6904 74.0976 30.5299C72.5604 29.3694 71.3171 27.6956 70.3677 25.5085C69.4182 23.2768 68.9435 20.331 68.9435 16.6709V0.0669507H75.7253Z" fill="#4200FF"/>
<path d="M138.557 47H109.938V40.6396H132.182V29.7265H132.046C131.368 30.7531 130.102 31.6011 128.248 32.2707C126.44 32.9402 124.451 33.2749 122.28 33.2749C120.472 33.2749 118.618 33.0964 116.719 32.7393C114.866 32.3822 113.17 31.6235 111.633 30.463C110.096 29.3025 108.853 27.6287 107.903 25.4416C106.954 23.2099 106.479 20.264 106.479 16.604C106.479 12.8993 106.954 9.95346 107.903 7.76638C108.898 5.5793 110.141 3.90551 111.633 2.74501C113.17 1.58452 114.866 0.848052 116.719 0.535612C118.618 0.178537 120.472 0 122.28 0C124.586 0 126.643 0.334757 128.452 1.00427C130.26 1.67379 131.526 2.56648 132.25 3.68233H132.453V0H138.557V47ZM122.552 26.9145C124.315 26.9145 125.807 26.7806 127.028 26.5128C128.248 26.2004 129.243 25.6871 130.012 24.9729C130.825 24.2141 131.413 23.1652 131.775 21.8262C132.137 20.4872 132.317 18.7911 132.317 16.7379C132.317 14.4169 132.091 12.5646 131.639 11.1809C131.232 9.79725 130.622 8.74834 129.808 8.03419C128.994 7.2754 128 6.78442 126.824 6.56125C125.694 6.33808 124.405 6.2265 122.959 6.2265C121.512 6.2265 120.201 6.31576 119.025 6.4943C117.895 6.67284 116.923 7.11918 116.109 7.83333C115.295 8.50285 114.662 9.55176 114.21 10.9801C113.803 12.3637 113.6 14.283 113.6 16.7379C113.6 18.925 113.781 20.688 114.142 22.0271C114.504 23.3215 115.047 24.3481 115.77 25.1068C116.493 25.821 117.42 26.312 118.55 26.5798C119.681 26.8029 121.015 26.9145 122.552 26.9145Z" fill="#4200FF"/>
<path d="M151.424 0.0669507V16.2023C151.424 18.3894 151.605 20.1971 151.967 21.6254C152.328 23.009 152.871 24.1026 153.594 24.906C154.363 25.7094 155.312 26.2673 156.443 26.5798C157.618 26.8922 158.974 27.0484 160.512 27.0484C162.094 27.0484 163.496 26.8922 164.716 26.5798C165.937 26.2673 166.954 25.7094 167.768 24.906C168.582 24.1026 169.192 23.0537 169.599 21.7593C170.051 20.4202 170.277 18.7464 170.277 16.7379V0.0669507H176.72V47H147.965V40.6396H170.074V29.5256H169.938C169.26 30.5522 168.039 31.4449 166.276 32.2037C164.558 32.9625 162.614 33.3419 160.444 33.3419C158.635 33.3419 156.782 33.1633 154.883 32.8063C153.029 32.4492 151.334 31.6904 149.796 30.5299C148.259 29.3694 147.016 27.6956 146.066 25.5085C145.117 23.2768 144.642 20.331 144.642 16.6709V0.0669507H151.424Z" fill="#4200FF"/>
<path d="M37.36 40.6317H64.36V47H37.36V40.6317Z" fill="#4200FF"/>
</svg>
